<svg width="89" height="11" viewBox="0 0 89 11" fill="none" xmlns="http://www.w3.org/2000/svg">
<path d="M3.159 10V1.368H0.208V0.431999H7.15V1.368H4.199V10H3.159ZM10.2653 10.052C10.0573 10.052 9.83633 10.0347 9.60233 10C9.36833 9.95667 9.14733 9.87433 8.93933 9.753C8.73133 9.63167 8.56233 9.44967 8.43233 9.207C8.30233 8.95567 8.23733 8.61767 8.23733 8.193V2.356C8.23733 1.98333 8.28933 1.67567 8.39333 1.433C8.50599 1.18167 8.65333 0.986666 8.83533 0.847999C9.01733 0.700666 9.22099 0.596666 9.44633 0.535999C9.67166 0.466666 9.89699 0.431999 10.1223 0.431999C10.6597 0.440666 11.158 0.453666 11.6173 0.470999C12.0767 0.479666 12.51 0.492666 12.9173 0.51C13.3333 0.518666 13.7363 0.531666 14.1263 0.548999V1.381H10.3823C10.0443 1.381 9.77566 1.472 9.57633 1.654C9.37699 1.836 9.27733 2.12633 9.27733 2.525V4.787L13.5543 4.852V5.645L9.27733 5.71V7.959C9.27733 8.27967 9.32933 8.52233 9.43333 8.687C9.54599 8.85167 9.69333 8.96 9.87533 9.012C10.0573 9.064 10.2437 9.09 10.4343 9.09H14.1263V9.922C13.7277 9.948 13.3073 9.96967 12.8653 9.987C12.432 10.0043 11.9943 10.0173 11.5523 10.026C11.119 10.0347 10.69 10.0433 10.2653 10.052ZM15.6072 10L16.6992 0.431999H17.7522L20.3002 8.7L22.7962 0.431999H23.8622L24.9802 10H23.9792L23.0172 1.615L23.1862 1.641L20.7682 10H19.8192L17.3362 1.654L17.5312 1.628L16.6082 10H15.6072ZM26.7217 10V0.431999H30.5307C30.808 0.431999 31.0897 0.470999 31.3757 0.548999C31.6704 0.618333 31.9434 0.761333 32.1947 0.978C32.446 1.186 32.6454 1.49367 32.7927 1.901C32.9487 2.29967 33.0267 2.82833 33.0267 3.487C33.0267 4.163 32.9444 4.709 32.7797 5.125C32.6237 5.53233 32.4157 5.84867 32.1557 6.074C31.9044 6.29067 31.6314 6.438 31.3367 6.516C31.042 6.594 30.756 6.633 30.4787 6.633C30.3487 6.633 30.158 6.62867 29.9067 6.62C29.6554 6.61133 29.3867 6.60267 29.1007 6.594C28.8234 6.57667 28.5634 6.55933 28.3207 6.542C28.078 6.52467 27.8917 6.51167 27.7617 6.503V10H26.7217ZM27.7617 5.71H30.3487C30.652 5.71 30.9294 5.645 31.1807 5.515C31.432 5.385 31.627 5.15967 31.7657 4.839C31.913 4.51833 31.9867 4.072 31.9867 3.5C31.9867 2.93667 31.913 2.50333 31.7657 2.2C31.627 1.888 31.4407 1.67133 31.2067 1.55C30.9727 1.42867 30.717 1.368 30.4397 1.368H27.7617V5.71ZM36.5954 10.052C36.3874 10.052 36.1664 10.0347 35.9324 10C35.6984 9.95667 35.4774 9.87433 35.2694 9.753C35.0614 9.63167 34.8924 9.44967 34.7624 9.207C34.6324 8.95567 34.5674 8.61767 34.5674 8.193V2.356C34.5674 1.98333 34.6194 1.67567 34.7234 1.433C34.8361 1.18167 34.9834 0.986666 35.1654 0.847999C35.3474 0.700666 35.5511 0.596666 35.7764 0.535999C36.0017 0.466666 36.2271 0.431999 36.4524 0.431999C36.9897 0.440666 37.4881 0.453666 37.9474 0.470999C38.4067 0.479666 38.8401 0.492666 39.2474 0.51C39.6634 0.518666 40.0664 0.531666 40.4564 0.548999V1.381H36.7124C36.3744 1.381 36.1057 1.472 35.9064 1.654C35.7071 1.836 35.6074 2.12633 35.6074 2.525V4.787L39.8844 4.852V5.645L35.6074 5.71V7.959C35.6074 8.27967 35.6594 8.52233 35.7634 8.687C35.8761 8.85167 36.0234 8.96 36.2054 9.012C36.3874 9.064 36.5737 9.09 36.7644 9.09H40.4564V9.922C40.0577 9.948 39.6374 9.96967 39.1954 9.987C38.7621 10.0043 38.3244 10.0173 37.8824 10.026C37.4491 10.0347 37.0201 10.0433 36.5954 10.052ZM42.1973 10V0.431999H45.9673C46.2793 0.431999 46.5826 0.470999 46.8773 0.548999C47.172 0.618333 47.4363 0.752666 47.6703 0.951999C47.913 1.15133 48.1036 1.43733 48.2423 1.81C48.381 2.174 48.4503 2.655 48.4503 3.253C48.4503 3.773 48.394 4.202 48.2813 4.54C48.1686 4.86933 48.0213 5.13367 47.8393 5.333C47.6573 5.52367 47.458 5.66667 47.2413 5.762C47.0333 5.84867 46.8296 5.90933 46.6303 5.944L48.5933 10H47.5403L45.6813 6.087C45.5426 6.087 45.3693 6.08267 45.1613 6.074C44.9533 6.06533 44.7323 6.061 44.4983 6.061C44.2643 6.061 44.0346 6.05667 43.8093 6.048C43.5926 6.03933 43.402 6.035 43.2373 6.035V10H42.1973ZM43.2373 5.242H45.8113C46.0366 5.242 46.2446 5.216 46.4353 5.164C46.626 5.112 46.795 5.01667 46.9423 4.878C47.0896 4.73067 47.2066 4.527 47.2933 4.267C47.38 4.007 47.4233 3.669 47.4233 3.253C47.4233 2.85433 47.38 2.53367 47.2933 2.291C47.2066 2.03967 47.0853 1.849 46.9293 1.719C46.782 1.58033 46.613 1.48933 46.4223 1.446C46.2316 1.394 46.028 1.368 45.8113 1.368H43.2373V5.242ZM49.5475 10L52.8235 0.431999H54.1495L57.4255 10H56.3595L55.3975 7.27H51.5495L50.6135 10H49.5475ZM51.8095 6.334H55.1375L53.4865 1.342L51.8095 6.334ZM60.3768 10V1.368H57.4258V0.431999H64.3678V1.368H61.4168V10H60.3768ZM68.9751 10.078C68.4377 10.078 67.9524 10.0303 67.5191 9.935C67.0857 9.83967 66.7131 9.67933 66.4011 9.454C66.0977 9.22 65.8637 8.908 65.6991 8.518C65.5344 8.11933 65.4521 7.62533 65.4521 7.036V0.431999H66.4921V7.036C66.4921 7.582 66.5874 8.00667 66.7781 8.31C66.9774 8.61333 67.2634 8.83 67.6361 8.96C68.0087 9.08133 68.4551 9.142 68.9751 9.142C69.4951 9.142 69.9414 9.08133 70.3141 8.96C70.6867 8.83 70.9684 8.61333 71.1591 8.31C71.3584 8.00667 71.4581 7.582 71.4581 7.036V0.431999H72.4981V7.036C72.4981 7.62533 72.4157 8.11933 72.2511 8.518C72.0864 8.908 71.8481 9.22 71.5361 9.454C71.2327 9.67933 70.8644 9.83967 70.4311 9.935C69.9977 10.0303 69.5124 10.078 68.9751 10.078ZM74.3672 10V0.431999H78.1372C78.4492 0.431999 78.7525 0.470999 79.0472 0.548999C79.3419 0.618333 79.6062 0.752666 79.8402 0.951999C80.0829 1.15133 80.2735 1.43733 80.4122 1.81C80.5509 2.174 80.6202 2.655 80.6202 3.253C80.6202 3.773 80.5639 4.202 80.4512 4.54C80.3385 4.86933 80.1912 5.13367 80.0092 5.333C79.8272 5.52367 79.6279 5.66667 79.4112 5.762C79.2032 5.84867 78.9995 5.90933 78.8002 5.944L80.7632 10H79.7102L77.8512 6.087C77.7125 6.087 77.5392 6.08267 77.3312 6.074C77.1232 6.06533 76.9022 6.061 76.6682 6.061C76.4342 6.061 76.2045 6.05667 75.9792 6.048C75.7625 6.03933 75.5719 6.035 75.4072 6.035V10H74.3672ZM75.4072 5.242H77.9812C78.2065 5.242 78.4145 5.216 78.6052 5.164C78.7959 5.112 78.9649 5.01667 79.1122 4.878C79.2595 4.73067 79.3765 4.527 79.4632 4.267C79.5499 4.007 79.5932 3.669 79.5932 3.253C79.5932 2.85433 79.5499 2.53367 79.4632 2.291C79.3765 2.03967 79.2552 1.849 79.0992 1.719C78.9519 1.58033 78.7829 1.48933 78.5922 1.446C78.4015 1.394 78.1979 1.368 77.9812 1.368H75.4072V5.242ZM84.3044 10.052C84.0964 10.052 83.8754 10.0347 83.6414 10C83.4074 9.95667 83.1864 9.87433 82.9784 9.753C82.7704 9.63167 82.6014 9.44967 82.4714 9.207C82.3414 8.95567 82.2764 8.61767 82.2764 8.193V2.356C82.2764 1.98333 82.3284 1.67567 82.4324 1.433C82.5451 1.18167 82.6924 0.986666 82.8744 0.847999C83.0564 0.700666 83.2601 0.596666 83.4854 0.535999C83.7107 0.466666 83.9361 0.431999 84.1614 0.431999C84.6987 0.440666 85.1971 0.453666 85.6564 0.470999C86.1157 0.479666 86.5491 0.492666 86.9564 0.51C87.3724 0.518666 87.7754 0.531666 88.1654 0.548999V1.381H84.4214C84.0834 1.381 83.8147 1.472 83.6154 1.654C83.4161 1.836 83.3164 2.12633 83.3164 2.525V4.787L87.5934 4.852V5.645L83.3164 5.71V7.959C83.3164 8.27967 83.3684 8.52233 83.4724 8.687C83.5851 8.85167 83.7324 8.96 83.9144 9.012C84.0964 9.064 84.2827 9.09 84.4734 9.09H88.1654V9.922C87.7667 9.948 87.3464 9.96967 86.9044 9.987C86.4711 10.0043 86.0334 10.0173 85.5914 10.026C85.1581 10.0347 84.7291 10.0433 84.3044 10.052Z" fill="#888B91"/>
</svg>
