<svg width="40" height="19" viewBox="0 0 40 19" fill="none" xmlns="http://www.w3.org/2000/svg">
<path d="M5.144 18.096C4.52 18.096 3.928 18.04 3.368 17.928C2.824 17.8 2.344 17.6 1.928 17.328C1.512 17.04 1.184 16.656 0.944 16.176C0.704 15.696 0.584 15.088 0.584 14.352V11.88C0.584 11.368 0.68 10.92 0.872 10.536C1.064 10.136 1.312 9.8 1.616 9.528C1.936 9.256 2.288 9.08 2.672 9C2.176 8.76 1.8 8.48 1.544 8.16C1.304 7.824 1.144 7.464 1.064 7.08C0.984 6.696 0.944 6.296 0.944 5.88V3.84C0.944 2.944 1.128 2.224 1.496 1.68C1.864 1.136 2.352 0.743999 2.96 0.503999C3.584 0.263999 4.264 0.144 5 0.144H8.336C9.104 0.144 9.776 0.263999 10.352 0.503999C10.944 0.743999 11.408 1.136 11.744 1.68C12.096 2.224 12.272 2.944 12.272 3.84V5.88C12.272 6.104 12.24 6.36 12.176 6.648C12.128 6.936 12.04 7.232 11.912 7.536C11.784 7.824 11.608 8.072 11.384 8.28C11.176 8.488 10.92 8.632 10.616 8.712C11.144 8.824 11.552 9.056 11.84 9.408C12.128 9.744 12.328 10.128 12.44 10.56C12.552 10.992 12.608 11.4 12.608 11.784V14.352C12.608 15.328 12.424 16.088 12.056 16.632C11.688 17.16 11.184 17.536 10.544 17.76C9.904 17.984 9.184 18.096 8.384 18.096H5.144ZM5.624 15.552H7.712C8.432 15.552 8.928 15.408 9.2 15.12C9.488 14.816 9.632 14.384 9.632 13.824V12.024C9.632 11.416 9.48 10.968 9.176 10.68C8.872 10.376 8.368 10.224 7.664 10.224H5.624C5.4 10.224 5.168 10.256 4.928 10.32C4.688 10.384 4.464 10.496 4.256 10.656C4.048 10.8 3.88 10.984 3.752 11.208C3.624 11.432 3.56 11.704 3.56 12.024V13.824C3.56 14.464 3.744 14.912 4.112 15.168C4.496 15.424 5 15.552 5.624 15.552ZM5.624 7.68H7.64C8.088 7.68 8.432 7.6 8.672 7.44C8.928 7.264 9.104 7.04 9.2 6.768C9.312 6.48 9.368 6.176 9.368 5.856V4.536C9.368 3.784 9.216 3.288 8.912 3.048C8.624 2.792 8.224 2.664 7.712 2.664H5.624C5 2.664 4.544 2.8 4.256 3.072C3.984 3.344 3.848 3.832 3.848 4.536V5.856C3.848 6.48 3.984 6.944 4.256 7.248C4.544 7.536 5 7.68 5.624 7.68ZM17.2595 18L22.8515 3.24H14.8115V0.287999H25.8515L26.6675 1.608L20.5955 18H17.2595ZM34.9908 18.144C33.7268 18.144 32.5268 18.104 31.3908 18.024C30.2548 17.96 29.2388 17.856 28.3428 17.712V15.336H33.9108C34.5668 15.336 35.1268 15.28 35.5908 15.168C36.0548 15.056 36.4068 14.856 36.6468 14.568C36.8868 14.28 37.0068 13.864 37.0068 13.32V12.432C37.0068 11.936 36.8868 11.544 36.6468 11.256C36.4068 10.952 36.0868 10.736 35.6868 10.608C35.3028 10.48 34.8788 10.408 34.4148 10.392L29.9988 10.2V7.944L34.2948 7.728C35.0788 7.696 35.6868 7.544 36.1188 7.272C36.5668 7 36.7908 6.552 36.7908 5.928V5.112C36.7908 4.392 36.5508 3.856 36.0708 3.504C35.5908 3.136 34.8228 2.952 33.7668 2.952H28.7988V0.576C29.6468 0.463999 30.5828 0.359999 31.6068 0.263999C32.6468 0.151999 33.7588 0.111999 34.9428 0.144C35.9828 0.144 36.8548 0.311999 37.5588 0.647999C38.2788 0.983999 38.8228 1.472 39.1908 2.112C39.5588 2.752 39.7428 3.528 39.7428 4.44V5.808C39.7428 6.304 39.6708 6.744 39.5268 7.128C39.3988 7.496 39.2228 7.808 38.9988 8.064C38.7748 8.32 38.5188 8.536 38.2308 8.712C37.9588 8.872 37.6788 8.992 37.3908 9.072C37.6948 9.152 37.9988 9.296 38.3028 9.504C38.6228 9.696 38.9028 9.952 39.1428 10.272C39.3988 10.576 39.6068 10.944 39.7668 11.376C39.9268 11.808 40.0068 12.288 40.0068 12.816V13.848C40.0068 15.256 39.5668 16.328 38.6868 17.064C37.8068 17.784 36.5748 18.144 34.9908 18.144Z" fill="white"/>
</svg>
